solid STL Exporter
 facet normal 0 1 0
  outer loop
  vertex 12.7 12.7 300
  vertex 300 12.7 300
  vertex 12.7 12.7 12.7
  endloop
 endfacet

 facet normal 0 1 0
  outer loop
  vertex 12.7 12.7 12.7
  vertex 300 12.7 300
  vertex 300 12.7 12.7
  endloop
 endfacet

 facet normal 0 1 0
  outer loop
  vertex 312.7 12.7 300
  vertex 737.3 12.7 300
  vertex 312.7 12.7 12.7
  endloop
 endfacet

 facet normal 0 1 0
  outer loop
  vertex 312.7 12.7 12.7
  vertex 737.3 12.7 300
  vertex 737.3 12.7 12.7
  endloop
 endfacet

 facet normal 0 1 0
  outer loop
  vertex 750 12.7 300
  vertex 1037.3 12.7 300
  vertex 750 12.7 12.7
  endloop
 endfacet

 facet normal 0 1 0
  outer loop
  vertex 750 12.7 12.7
  vertex 1037.3 12.7 300
  vertex 1037.3 12.7 12.7
  endloop
 endfacet

 facet normal -1 0 0
  outer loop
  vertex 0 300 300
  vertex 0 300 0
  vertex 0 0 300
  endloop
 endfacet

 facet normal -1 0 0
  outer loop
  vertex 0 0 300
  vertex 0 300 0
  vertex 0 0 0
  endloop
 endfacet

 facet normal 0 0 1
  outer loop
  vertex 1050 0 300
  vertex 1050 300 300
  vertex 1037.3 300 300
  endloop
 endfacet

 facet normal 0 0 1
  outer loop
  vertex 1037.3 300 300
  vertex 1037.3 12.7 300
  vertex 1050 0 300
  endloop
 endfacet

 facet normal 0 0 1
  outer loop
  vertex 1050 0 300
  vertex 1037.3 12.7 300
  vertex 750 12.7 300
  endloop
 endfacet

 facet normal 0 0 1
  outer loop
  vertex 1050 0 300
  vertex 750 12.7 300
  vertex 0 0 300
  endloop
 endfacet

 facet normal 0 0 1
  outer loop
  vertex 750 300 300
  vertex 737.3 300 300
  vertex 750 12.7 300
  endloop
 endfacet

 facet normal 0 0 1
  outer loop
  vertex 750 12.7 300
  vertex 737.3 300 300
  vertex 737.3 12.7 300
  endloop
 endfacet

 facet normal 0 0 1
  outer loop
  vertex 0 0 300
  vertex 750 12.7 300
  vertex 737.3 12.7 300
  endloop
 endfacet

 facet normal 0 0 1
  outer loop
  vertex 0 0 300
  vertex 737.3 12.7 300
  vertex 312.7 12.7 300
  endloop
 endfacet

 facet normal 0 0 1
  outer loop
  vertex 12.7 12.7 300
  vertex 0 300 300
  vertex 0 0 300
  endloop
 endfacet

 facet normal 0 0 1
  outer loop
  vertex 12.7 12.7 300
  vertex 0 0 300
  vertex 300 12.7 300
  endloop
 endfacet

 facet normal 0 0 1
  outer loop
  vertex 300 12.7 300
  vertex 0 0 300
  vertex 312.7 12.7 300
  endloop
 endfacet

 facet normal 0 0 1
  outer loop
  vertex 300 12.7 300
  vertex 312.7 12.7 300
  vertex 300 300 300
  endloop
 endfacet

 facet normal 0 0 1
  outer loop
  vertex 300 300 300
  vertex 312.7 12.7 300
  vertex 312.7 300 300
  endloop
 endfacet

 facet normal 0 0 1
  outer loop
  vertex 12.7 300 300
  vertex 0 300 300
  vertex 12.7 12.7 300
  endloop
 endfacet

 facet normal 1 0 0
  outer loop
  vertex 1050 300 0
  vertex 1050 300 300
  vertex 1050 0 0
  endloop
 endfacet

 facet normal 1 0 0
  outer loop
  vertex 1050 0 0
  vertex 1050 300 300
  vertex 1050 0 300
  endloop
 endfacet

 facet normal 0 0 -1
  outer loop
  vertex 0 300 0
  vertex 1050 300 0
  vertex 0 0 0
  endloop
 endfacet

 facet normal 0 0 -1
  outer loop
  vertex 0 0 0
  vertex 1050 300 0
  vertex 1050 0 0
  endloop
 endfacet

 facet normal 0 -1 0
  outer loop
  vertex 0 0 300
  vertex 0 0 0
  vertex 1050 0 300
  endloop
 endfacet

 facet normal 0 -1 0
  outer loop
  vertex 1050 0 300
  vertex 0 0 0
  vertex 1050 0 0
  endloop
 endfacet

 facet normal 1 0 0
  outer loop
  vertex 12.7 300 12.7
  vertex 12.7 300 300
  vertex 12.7 12.7 12.7
  endloop
 endfacet

 facet normal 1 0 0
  outer loop
  vertex 12.7 12.7 12.7
  vertex 12.7 300 300
  vertex 12.7 12.7 300
  endloop
 endfacet

 facet normal -9.66083e-17 0 1
  outer loop
  vertex 300 300 12.7
  vertex 12.7 300 12.7
  vertex 300 12.7 12.7
  endloop
 endfacet

 facet normal -9.66083e-17 0 1
  outer loop
  vertex 300 12.7 12.7
  vertex 12.7 300 12.7
  vertex 12.7 12.7 12.7
  endloop
 endfacet

 facet normal -1 0 9.66083e-17
  outer loop
  vertex 300 300 300
  vertex 300 300 12.7
  vertex 300 12.7 300
  endloop
 endfacet

 facet normal -1 0 9.66083e-17
  outer loop
  vertex 300 12.7 300
  vertex 300 300 12.7
  vertex 300 12.7 12.7
  endloop
 endfacet

 facet normal 1 0 0
  outer loop
  vertex 312.7 300 12.7
  vertex 312.7 300 300
  vertex 312.7 12.7 12.7
  endloop
 endfacet

 facet normal 1 0 0
  outer loop
  vertex 312.7 12.7 12.7
  vertex 312.7 300 300
  vertex 312.7 12.7 300
  endloop
 endfacet

 facet normal 6.53688e-17 0 1
  outer loop
  vertex 737.3 300 12.7
  vertex 312.7 300 12.7
  vertex 737.3 12.7 12.7
  endloop
 endfacet

 facet normal 6.53688e-17 0 1
  outer loop
  vertex 737.3 12.7 12.7
  vertex 312.7 300 12.7
  vertex 312.7 12.7 12.7
  endloop
 endfacet

 facet normal -1 0 1.93217e-16
  outer loop
  vertex 737.3 300 300
  vertex 737.3 300 12.7
  vertex 737.3 12.7 300
  endloop
 endfacet

 facet normal -1 0 1.93217e-16
  outer loop
  vertex 737.3 12.7 300
  vertex 737.3 300 12.7
  vertex 737.3 12.7 12.7
  endloop
 endfacet

 facet normal 1 0 0
  outer loop
  vertex 750 300 12.7
  vertex 750 300 300
  vertex 750 12.7 12.7
  endloop
 endfacet

 facet normal 1 0 0
  outer loop
  vertex 750 12.7 12.7
  vertex 750 300 300
  vertex 750 12.7 300
  endloop
 endfacet

 facet normal -9.66083e-17 0 1
  outer loop
  vertex 1037.3 300 12.7
  vertex 750 300 12.7
  vertex 1037.3 12.7 12.7
  endloop
 endfacet

 facet normal -9.66083e-17 0 1
  outer loop
  vertex 1037.3 12.7 12.7
  vertex 750 300 12.7
  vertex 750 12.7 12.7
  endloop
 endfacet

 facet normal -1 0 0
  outer loop
  vertex 1037.3 300 300
  vertex 1037.3 300 12.7
  vertex 1037.3 12.7 300
  endloop
 endfacet

 facet normal -1 0 0
  outer loop
  vertex 1037.3 12.7 300
  vertex 1037.3 300 12.7
  vertex 1037.3 12.7 12.7
  endloop
 endfacet

 facet normal 0 1 0
  outer loop
  vertex 0 300 0
  vertex 0 300 300
  vertex 12.7 300 300
  endloop
 endfacet

 facet normal 0 1 0
  outer loop
  vertex 12.7 300 300
  vertex 12.7 300 12.7
  vertex 0 300 0
  endloop
 endfacet

 facet normal 0 1 0
  outer loop
  vertex 0 300 0
  vertex 12.7 300 12.7
  vertex 300 300 12.7
  endloop
 endfacet

 facet normal 0 1 0
  outer loop
  vertex 0 300 0
  vertex 300 300 12.7
  vertex 1050 300 0
  endloop
 endfacet

 facet normal 0 1 0
  outer loop
  vertex 300 300 300
  vertex 312.7 300 300
  vertex 300 300 12.7
  endloop
 endfacet

 facet normal 0 1 0
  outer loop
  vertex 300 300 12.7
  vertex 312.7 300 300
  vertex 312.7 300 12.7
  endloop
 endfacet

 facet normal 0 1 0
  outer loop
  vertex 1050 300 0
  vertex 300 300 12.7
  vertex 312.7 300 12.7
  endloop
 endfacet

 facet normal 0 1 0
  outer loop
  vertex 1050 300 0
  vertex 312.7 300 12.7
  vertex 737.3 300 12.7
  endloop
 endfacet

 facet normal 0 1 0
  outer loop
  vertex 1037.3 300 12.7
  vertex 1050 300 300
  vertex 1050 300 0
  endloop
 endfacet

 facet normal 0 1 0
  outer loop
  vertex 1037.3 300 12.7
  vertex 1050 300 0
  vertex 750 300 12.7
  endloop
 endfacet

 facet normal 0 1 0
  outer loop
  vertex 750 300 12.7
  vertex 1050 300 0
  vertex 737.3 300 12.7
  endloop
 endfacet

 facet normal 0 1 0
  outer loop
  vertex 750 300 12.7
  vertex 737.3 300 12.7
  vertex 750 300 300
  endloop
 endfacet

 facet normal 0 1 0
  outer loop
  vertex 750 300 300
  vertex 737.3 300 12.7
  vertex 737.3 300 300
  endloop
 endfacet

 facet normal 0 1 0
  outer loop
  vertex 1037.3 300 300
  vertex 1050 300 300
  vertex 1037.3 300 12.7
  endloop
 endfacet

endsolid AssimpScene
